<svg width="216" height="110" viewBox="0 0 216 110" fill="none" xmlns="http://www.w3.org/2000/svg">
<rect width="216" height="110" fill="white"/>
<path d="M0.35 1.214H4.9C5.712 1.214 6.37 1.28867 6.874 1.438C7.378 1.58733 7.77 1.79267 8.05 2.054C8.33933 2.31533 8.53067 2.62333 8.624 2.978C8.72667 3.32333 8.778 3.69667 8.778 4.098C8.778 4.36867 8.72667 4.62067 8.624 4.854C8.52133 5.08733 8.37667 5.29267 8.19 5.47C8.01267 5.638 7.798 5.78267 7.546 5.904C7.30333 6.016 7.03733 6.09067 6.748 6.128C6.99067 6.16533 7.21933 6.24467 7.434 6.366C7.658 6.478 7.854 6.62267 8.022 6.8C8.19 6.97733 8.32533 7.178 8.428 7.402C8.53067 7.626 8.582 7.864 8.582 8.116C8.582 8.41467 8.60533 8.648 8.652 8.816C8.69867 8.984 8.78733 9.068 8.918 9.068C9.13267 9.068 9.24 8.91867 9.24 8.62V8.158H10.178V8.928C10.178 9.21733 10.1453 9.49733 10.08 9.768C10.0147 10.0387 9.90267 10.2767 9.744 10.482C9.58533 10.6873 9.37533 10.8553 9.114 10.986C8.85267 11.1073 8.526 11.168 8.134 11.168C7.21 11.168 6.524 10.9393 6.076 10.482C5.63733 10.0247 5.418 9.38533 5.418 8.564C5.418 8.24667 5.404 7.98533 5.376 7.78C5.348 7.57467 5.28267 7.416 5.18 7.304C5.08667 7.18267 4.94667 7.09867 4.76 7.052C4.57333 7.00533 4.326 6.982 4.018 6.982V9.152H4.872V11H0.35V9.152H1.134V3.048H0.35V1.214ZM4.018 3.034V5.414H4.648C5.05867 5.414 5.38533 5.32067 5.628 5.134C5.87067 4.938 5.992 4.65333 5.992 4.28C5.992 3.86 5.88 3.54733 5.656 3.342C5.44133 3.13667 5.12867 3.034 4.718 3.034H4.018ZM17.7003 10.034C17.1776 10.482 16.6269 10.7993 16.0483 10.986C15.4696 11.1633 14.8163 11.252 14.0883 11.252C13.6496 11.252 13.2109 11.1773 12.7723 11.028C12.3336 10.888 11.9369 10.6687 11.5823 10.37C11.2369 10.062 10.9523 9.67 10.7283 9.194C10.5043 8.70867 10.3923 8.13 10.3923 7.458C10.3923 6.88867 10.4903 6.38 10.6863 5.932C10.8823 5.47467 11.1483 5.08733 11.4843 4.77C11.8203 4.45267 12.2169 4.21467 12.6743 4.056C13.1316 3.888 13.6263 3.804 14.1583 3.804C14.5783 3.804 14.9656 3.85533 15.3203 3.958C15.6843 4.06067 16.0109 4.20067 16.3003 4.378C16.5896 4.55533 16.8369 4.77 17.0423 5.022C17.2476 5.274 17.4016 5.54467 17.5043 5.834C17.5416 5.95533 17.5789 6.10933 17.6163 6.296C17.6536 6.48267 17.6769 6.68333 17.6863 6.898C17.7049 7.11267 17.7003 7.33667 17.6723 7.57C17.6536 7.794 17.6069 8.004 17.5323 8.2H13.1223C13.1409 8.29333 13.1689 8.40533 13.2063 8.536C13.2529 8.66667 13.3276 8.79267 13.4303 8.914C13.5329 9.03533 13.6729 9.138 13.8503 9.222C14.0276 9.306 14.2656 9.348 14.5643 9.348C14.6856 9.348 14.8163 9.34333 14.9563 9.334C15.1056 9.32467 15.2643 9.29667 15.4323 9.25C15.6003 9.20333 15.7776 9.138 15.9643 9.054C16.1509 8.96067 16.3376 8.83467 16.5243 8.676L17.7003 10.034ZM14.2423 5.694C14.0276 5.694 13.8503 5.736 13.7103 5.82C13.5796 5.904 13.4723 6.00667 13.3883 6.128C13.3136 6.24 13.2576 6.36133 13.2203 6.492C13.1923 6.62267 13.1736 6.73 13.1643 6.814H15.2783C15.2783 6.68333 15.2643 6.55267 15.2363 6.422C15.2083 6.282 15.1569 6.16067 15.0823 6.058C15.0169 5.946 14.9143 5.85733 14.7743 5.792C14.6436 5.72667 14.4663 5.694 14.2423 5.694Z" fill="#CBDB2A"/>
<path d="M25.378 10.034C24.8553 10.482 24.3047 10.7993 23.726 10.986C23.1473 11.1633 22.494 11.252 21.766 11.252C21.3273 11.252 20.8887 11.1773 20.45 11.028C20.0113 10.888 19.6147 10.6687 19.26 10.37C18.9147 10.062 18.63 9.67 18.406 9.194C18.182 8.70867 18.07 8.13 18.07 7.458C18.07 6.88867 18.168 6.38 18.364 5.932C18.56 5.47467 18.826 5.08733 19.162 4.77C19.498 4.45267 19.8947 4.21467 20.352 4.056C20.8093 3.888 21.304 3.804 21.836 3.804C22.256 3.804 22.6433 3.85533 22.998 3.958C23.362 4.06067 23.6887 4.20067 23.978 4.378C24.2673 4.55533 24.5147 4.77 24.72 5.022C24.9253 5.274 25.0793 5.54467 25.182 5.834C25.2193 5.95533 25.2567 6.10933 25.294 6.296C25.3313 6.48267 25.3547 6.68333 25.364 6.898C25.3827 7.11267 25.378 7.33667 25.35 7.57C25.3313 7.794 25.2847 8.004 25.21 8.2H20.8C20.8187 8.29333 20.8467 8.40533 20.884 8.536C20.9307 8.66667 21.0053 8.79267 21.108 8.914C21.2107 9.03533 21.3507 9.138 21.528 9.222C21.7053 9.306 21.9433 9.348 22.242 9.348C22.3633 9.348 22.494 9.34333 22.634 9.334C22.7833 9.32467 22.942 9.29667 23.11 9.25C23.278 9.20333 23.4553 9.138 23.642 9.054C23.8287 8.96067 24.0153 8.83467 24.202 8.676L25.378 10.034ZM21.92 5.694C21.7053 5.694 21.528 5.736 21.388 5.82C21.2573 5.904 21.15 6.00667 21.066 6.128C20.9913 6.24 20.9353 6.36133 20.898 6.492C20.87 6.62267 20.8513 6.73 20.842 6.814H22.956C22.956 6.68333 22.942 6.55267 22.914 6.422C22.886 6.282 22.8347 6.16067 22.76 6.058C22.6947 5.946 22.592 5.85733 22.452 5.792C22.3213 5.72667 22.144 5.694 21.92 5.694ZM30.0259 11H25.9379V9.166H26.5399V2.306H25.9519V0.499999H29.1999V9.166H30.0259V11ZM37.6143 10.034C37.0917 10.482 36.541 10.7993 35.9623 10.986C35.3837 11.1633 34.7303 11.252 34.0023 11.252C33.5637 11.252 33.125 11.1773 32.6863 11.028C32.2477 10.888 31.851 10.6687 31.4963 10.37C31.151 10.062 30.8663 9.67 30.6423 9.194C30.4183 8.70867 30.3063 8.13 30.3063 7.458C30.3063 6.88867 30.4043 6.38 30.6003 5.932C30.7963 5.47467 31.0623 5.08733 31.3983 4.77C31.7343 4.45267 32.131 4.21467 32.5883 4.056C33.0457 3.888 33.5403 3.804 34.0723 3.804C34.4923 3.804 34.8797 3.85533 35.2343 3.958C35.5983 4.06067 35.925 4.20067 36.2143 4.378C36.5037 4.55533 36.751 4.77 36.9563 5.022C37.1617 5.274 37.3157 5.54467 37.4183 5.834C37.4557 5.95533 37.493 6.10933 37.5303 6.296C37.5677 6.48267 37.591 6.68333 37.6003 6.898C37.619 7.11267 37.6143 7.33667 37.5863 7.57C37.5677 7.794 37.521 8.004 37.4463 8.2H33.0363C33.055 8.29333 33.083 8.40533 33.1203 8.536C33.167 8.66667 33.2417 8.79267 33.3443 8.914C33.447 9.03533 33.587 9.138 33.7643 9.222C33.9417 9.306 34.1797 9.348 34.4783 9.348C34.5997 9.348 34.7303 9.34333 34.8703 9.334C35.0197 9.32467 35.1783 9.29667 35.3463 9.25C35.5143 9.20333 35.6917 9.138 35.8783 9.054C36.065 8.96067 36.2517 8.83467 36.4383 8.676L37.6143 10.034ZM34.1563 5.694C33.9417 5.694 33.7643 5.736 33.6243 5.82C33.4937 5.904 33.3863 6.00667 33.3023 6.128C33.2277 6.24 33.1717 6.36133 33.1343 6.492C33.1063 6.62267 33.0877 6.73 33.0783 6.814H35.1923C35.1923 6.68333 35.1783 6.55267 35.1503 6.422C35.1223 6.282 35.071 6.16067 34.9963 6.058C34.931 5.946 34.8283 5.85733 34.6883 5.792C34.5577 5.72667 34.3803 5.694 34.1563 5.694ZM42.8642 7.164C42.8549 6.996 42.8316 6.828 42.7942 6.66C42.7662 6.48267 42.7196 6.324 42.6542 6.184C42.5889 6.03467 42.5002 5.918 42.3882 5.834C42.2762 5.74067 42.1409 5.694 41.9822 5.694C41.7769 5.694 41.5949 5.74533 41.4362 5.848C41.2869 5.95067 41.1609 6.086 41.0582 6.254C40.9556 6.422 40.8762 6.61333 40.8202 6.828C40.7736 7.04267 40.7502 7.262 40.7502 7.486C40.7502 7.94333 40.8762 8.33067 41.1282 8.648C41.3896 8.96533 41.7442 9.12867 42.1922 9.138C42.5656 9.14733 42.8829 9.082 43.1442 8.942C43.4056 8.79267 43.6529 8.592 43.8862 8.34L45.1182 9.768C44.9502 9.94533 44.7496 10.1227 44.5162 10.3C44.2829 10.468 44.0169 10.6173 43.7182 10.748C43.4289 10.8787 43.1116 10.986 42.7662 11.07C42.4209 11.154 42.0616 11.196 41.6882 11.196C41.1749 11.196 40.6849 11.1213 40.2182 10.972C39.7516 10.8133 39.3409 10.58 38.9862 10.272C38.6409 9.95467 38.3609 9.56267 38.1462 9.096C37.9409 8.62933 37.8382 8.08333 37.8382 7.458C37.8382 6.842 37.9316 6.31 38.1182 5.862C38.3142 5.40467 38.5709 5.03133 38.8882 4.742C39.2056 4.44333 39.5696 4.224 39.9802 4.084C40.4002 3.944 40.8342 3.874 41.2822 3.874C41.5156 3.874 41.7256 3.902 41.9122 3.958C42.1082 4.014 42.2762 4.084 42.4162 4.168C42.5656 4.252 42.6916 4.34067 42.7942 4.434C42.8969 4.52733 42.9762 4.60667 43.0322 4.672L43.2702 4H44.9222V7.164H42.8642ZM45.4717 4H46.2277V2.712L48.8037 1.886V4H50.1337V5.82H48.8037V8.312C48.8037 8.43333 48.7991 8.55933 48.7897 8.69C48.7897 8.82067 48.7991 8.942 48.8177 9.054C48.8457 9.166 48.8877 9.25933 48.9437 9.334C49.0091 9.39933 49.1117 9.432 49.2517 9.432C49.3451 9.432 49.4804 9.40867 49.6577 9.362C49.8444 9.306 50.0031 9.25 50.1337 9.194V10.986C50.0311 11.0327 49.9004 11.07 49.7417 11.098C49.5831 11.1353 49.4197 11.1633 49.2517 11.182C49.0837 11.2007 48.9251 11.2147 48.7757 11.224C48.6357 11.2427 48.5237 11.252 48.4397 11.252C47.9171 11.252 47.5064 11.182 47.2077 11.042C46.9184 10.902 46.7037 10.706 46.5637 10.454C46.4237 10.202 46.3351 9.894 46.2977 9.53C46.2604 9.166 46.2371 8.76 46.2277 8.312V5.82H45.4717V4Z" fill="#014F6E"/>
<path d="M8.94531 61.5661H214.566V14.1211H17.1293L8.94531 61.5661Z" fill="white"/>
<path d="M7.89453 88.1445H216V107.95H7.89453V88.1445Z" fill="#014F6E"/>
<path d="M41.8195 13.1367V15.1877H213.953V107.949H9.93753V58.8007H7.89453V110H216V13.1367H41.8195Z" fill="#CBDB2A"/>
<path d="M7.89453 58.8008H216V88.1448H7.89453V58.8008Z" fill="#CBDB2A"/>
<path d="M14.062 103C13.982 103 13.942 102.95 13.942 102.85V93.325C13.942 93.225 13.982 93.175 14.062 93.175H17.887C17.967 93.175 18.007 93.225 18.007 93.325V94.3C18.007 94.41 17.967 94.465 17.887 94.465H15.337V97.54H17.527C17.627 97.54 17.677 97.595 17.677 97.705V98.635C17.677 98.735 17.627 98.785 17.527 98.785H15.337V102.85C15.337 102.95 15.297 103 15.217 103H14.062ZM21.5621 103.09C20.7221 103.09 20.0771 102.84 19.6271 102.34C19.1771 101.84 18.9521 101.09 18.9521 100.09V96.115C18.9521 95.095 19.1771 94.335 19.6271 93.835C20.0771 93.335 20.7221 93.085 21.5621 93.085C22.4121 93.085 23.0621 93.335 23.5121 93.835C23.9621 94.335 24.1871 95.095 24.1871 96.115V100.09C24.1871 101.09 23.9621 101.84 23.5121 102.34C23.0621 102.84 22.4121 103.09 21.5621 103.09ZM21.5621 101.8C21.9721 101.8 22.2771 101.66 22.4771 101.38C22.6871 101.1 22.7921 100.645 22.7921 100.015V96.175C22.7921 95.535 22.6871 95.075 22.4771 94.795C22.2771 94.515 21.9721 94.375 21.5621 94.375C21.1621 94.375 20.8571 94.515 20.6471 94.795C20.4471 95.075 20.3471 95.535 20.3471 96.175V100.015C20.3471 100.645 20.4471 101.1 20.6471 101.38C20.8571 101.66 21.1621 101.8 21.5621 101.8ZM25.6998 103C25.6198 103 25.5798 102.95 25.5798 102.85V93.325C25.5798 93.225 25.6198 93.175 25.6998 93.175H27.6198C28.5398 93.175 29.2098 93.4 29.6298 93.85C30.0498 94.3 30.2598 95 30.2598 95.95C30.2598 96.69 30.1548 97.28 29.9448 97.72C29.7448 98.15 29.4548 98.45 29.0748 98.62L29.0598 98.635L30.6198 102.805C30.6498 102.935 30.6098 103 30.4998 103H29.2698C29.1998 103 29.1498 102.965 29.1198 102.895L27.7398 98.92H26.9748V102.85C26.9748 102.95 26.9298 103 26.8398 103H25.6998ZM26.9748 97.705H27.6498C28.0898 97.705 28.4048 97.57 28.5948 97.3C28.7848 97.02 28.8798 96.6 28.8798 96.04C28.8798 95.48 28.7748 95.08 28.5648 94.84C28.3648 94.59 28.0498 94.465 27.6198 94.465H26.9748V97.705ZM36.2211 103.09C35.3711 103.09 34.7211 102.835 34.2711 102.325C33.8311 101.805 33.6111 101.01 33.6111 99.94V96.235C33.6111 95.185 33.8311 94.4 34.2711 93.88C34.7211 93.35 35.3711 93.085 36.2211 93.085C36.8311 93.085 37.3361 93.225 37.7361 93.505C38.1361 93.775 38.4211 94.16 38.5911 94.66C38.7711 95.16 38.8211 95.755 38.7411 96.445C38.7211 96.545 38.6811 96.595 38.6211 96.595H37.4661C37.3661 96.595 37.3261 96.535 37.3461 96.415C37.3961 95.755 37.3311 95.25 37.1511 94.9C36.9711 94.55 36.6611 94.375 36.2211 94.375C35.8111 94.375 35.5061 94.525 35.3061 94.825C35.1061 95.125 35.0061 95.62 35.0061 96.31V99.85C35.0061 100.54 35.1061 101.04 35.3061 101.35C35.5161 101.65 35.8211 101.8 36.2211 101.8C36.7011 101.8 37.0211 101.615 37.1811 101.245C37.3511 100.875 37.4161 100.375 37.3761 99.745C37.3561 99.635 37.3961 99.58 37.4961 99.58H38.5911C38.6811 99.58 38.7361 99.635 38.7561 99.745C38.8261 100.795 38.6461 101.615 38.2161 102.205C37.7961 102.795 37.1311 103.09 36.2211 103.09ZM42.5673 103.09C41.7273 103.09 41.0823 102.84 40.6323 102.34C40.1823 101.84 39.9573 101.09 39.9573 100.09V96.115C39.9573 95.095 40.1823 94.335 40.6323 93.835C41.0823 93.335 41.7273 93.085 42.5673 93.085C43.4173 93.085 44.0673 93.335 44.5173 93.835C44.9673 94.335 45.1923 95.095 45.1923 96.115V100.09C45.1923 101.09 44.9673 101.84 44.5173 102.34C44.0673 102.84 43.4173 103.09 42.5673 103.09ZM42.5673 101.8C42.9773 101.8 43.2823 101.66 43.4823 101.38C43.6923 101.1 43.7973 100.645 43.7973 100.015V96.175C43.7973 95.535 43.6923 95.075 43.4823 94.795C43.2823 94.515 42.9773 94.375 42.5673 94.375C42.1673 94.375 41.8623 94.515 41.6523 94.795C41.4523 95.075 41.3523 95.535 41.3523 96.175V100.015C41.3523 100.645 41.4523 101.1 41.6523 101.38C41.8623 101.66 42.1673 101.8 42.5673 101.8ZM49.0751 103.09C48.2051 103.09 47.5651 102.825 47.1551 102.295C46.7451 101.755 46.5401 100.945 46.5401 99.865V93.325C46.5401 93.225 46.5801 93.175 46.6601 93.175H47.8001C47.8801 93.175 47.9201 93.225 47.9201 93.325V99.835C47.9201 100.535 48.0101 101.04 48.1901 101.35C48.3801 101.65 48.6751 101.8 49.0751 101.8C49.4851 101.8 49.7801 101.65 49.9601 101.35C50.1501 101.04 50.2451 100.535 50.2451 99.835V93.325C50.2451 93.225 50.2851 93.175 50.3651 93.175H51.5051C51.5851 93.175 51.6251 93.225 51.6251 93.325V99.865C51.6251 100.945 51.4101 101.755 50.9801 102.295C50.5601 102.825 49.9251 103.09 49.0751 103.09ZM53.2272 103C53.1472 103 53.1072 102.95 53.1072 102.85V93.325C53.1072 93.225 53.1472 93.175 53.2272 93.175H54.8022C54.8822 93.175 54.9322 93.21 54.9522 93.28L56.3922 98.47C56.4622 98.73 56.5372 99.02 56.6172 99.34C56.6972 99.65 56.7722 99.965 56.8422 100.285C56.9122 100.595 56.9722 100.875 57.0222 101.125H57.0522C57.0322 100.925 57.0172 100.695 57.0072 100.435C56.9972 100.175 56.9872 99.91 56.9772 99.64C56.9672 99.37 56.9572 99.105 56.9472 98.845C56.9472 98.585 56.9472 98.355 56.9472 98.155V93.325C56.9472 93.225 56.9872 93.175 57.0672 93.175H58.1322C58.2222 93.175 58.2672 93.225 58.2672 93.325V102.85C58.2672 102.95 58.2222 103 58.1322 103H56.5722C56.5022 103 56.4572 102.97 56.4372 102.91L55.0122 97.84C54.8722 97.35 54.7522 96.87 54.6522 96.4C54.5522 95.92 54.4572 95.48 54.3672 95.08H54.3372C54.3572 95.37 54.3722 95.705 54.3822 96.085C54.3922 96.455 54.4022 96.83 54.4122 97.21C54.4222 97.59 54.4272 97.925 54.4272 98.215V102.85C54.4272 102.95 54.3872 103 54.3072 103H53.2272ZM61.1557 103C61.0657 103 61.0207 102.95 61.0207 102.85V94.465H59.4607C59.3707 94.465 59.3257 94.41 59.3257 94.3V93.325C59.3257 93.225 59.3707 93.175 59.4607 93.175H63.9907C64.0707 93.175 64.1107 93.225 64.1107 93.325V94.3C64.1107 94.41 64.0707 94.465 63.9907 94.465H62.4157V102.85C62.4157 102.95 62.3707 103 62.2807 103H61.1557ZM66.7888 103C66.6988 103 66.6538 102.95 66.6538 102.85V99.625L64.6288 93.37C64.5888 93.24 64.6188 93.175 64.7188 93.175H66.0088C66.0888 93.175 66.1338 93.21 66.1438 93.28L66.9388 96.37C67.0088 96.66 67.0788 96.955 67.1488 97.255C67.2188 97.545 67.2838 97.835 67.3438 98.125H67.3738C67.4438 97.835 67.5138 97.545 67.5838 97.255C67.6538 96.955 67.7238 96.66 67.7938 96.37L68.5888 93.28C68.6088 93.21 68.6488 93.175 68.7088 93.175H69.9688C70.0688 93.175 70.1038 93.24 70.0738 93.37L68.0488 99.61V102.85C68.0488 102.95 68.0138 103 67.9438 103H66.7888ZM75.0231 103.09C74.4331 103.09 73.9631 102.97 73.6131 102.73C73.2631 102.49 73.0181 102.16 72.8781 101.74C72.7481 101.31 72.7031 100.81 72.7431 100.24C72.7531 100.13 72.7981 100.075 72.8781 100.075H73.9881C74.0781 100.075 74.1181 100.13 74.1081 100.24C74.0481 100.76 74.1031 101.155 74.2731 101.425C74.4431 101.695 74.7031 101.83 75.0531 101.83C75.3831 101.83 75.6281 101.735 75.7881 101.545C75.9481 101.345 76.0281 101.03 76.0281 100.6C76.0281 100.24 75.9731 99.935 75.8631 99.685C75.7531 99.425 75.5681 99.2 75.3081 99.01L74.0631 98.035C73.6231 97.695 73.2981 97.325 73.0881 96.925C72.8781 96.515 72.7781 96.015 72.7881 95.425C72.7981 94.675 72.9931 94.1 73.3731 93.7C73.7531 93.29 74.2981 93.085 75.0081 93.085C75.8381 93.085 76.4431 93.33 76.8231 93.82C77.2031 94.31 77.3531 94.985 77.2731 95.845C77.2731 95.975 77.2331 96.04 77.1531 96.04H76.0131C75.9331 96.04 75.8981 95.975 75.9081 95.845C75.9581 95.385 75.9081 95.02 75.7581 94.75C75.6081 94.48 75.3731 94.345 75.0531 94.345C74.7831 94.345 74.5681 94.435 74.4081 94.615C74.2581 94.785 74.1781 95.05 74.1681 95.41C74.1681 95.76 74.2331 96.055 74.3631 96.295C74.4931 96.535 74.6831 96.755 74.9331 96.955L76.1481 97.885C76.4581 98.125 76.7031 98.37 76.8831 98.62C77.0731 98.87 77.2081 99.155 77.2881 99.475C77.3781 99.785 77.4231 100.155 77.4231 100.585C77.4231 101.375 77.2281 101.99 76.8381 102.43C76.4581 102.87 75.8531 103.09 75.0231 103.09ZM81.1323 103.09C80.2623 103.09 79.6223 102.825 79.2123 102.295C78.8023 101.755 78.5973 100.945 78.5973 99.865V93.325C78.5973 93.225 78.6373 93.175 78.7173 93.175H79.8573C79.9373 93.175 79.9773 93.225 79.9773 93.325V99.835C79.9773 100.535 80.0673 101.04 80.2473 101.35C80.4373 101.65 80.7323 101.8 81.1323 101.8C81.5423 101.8 81.8373 101.65 82.0173 101.35C82.2073 101.04 82.3023 100.535 82.3023 99.835V93.325C82.3023 93.225 82.3423 93.175 82.4223 93.175H83.5623C83.6423 93.175 83.6823 93.225 83.6823 93.325V99.865C83.6823 100.945 83.4673 101.755 83.0373 102.295C82.6173 102.825 81.9823 103.09 81.1323 103.09ZM85.2844 103C85.2044 103 85.1644 102.95 85.1644 102.85V93.325C85.1644 93.225 85.2044 93.175 85.2844 93.175H87.0094C87.9194 93.175 88.5894 93.43 89.0194 93.94C89.4494 94.44 89.6644 95.225 89.6644 96.295C89.6644 97.295 89.4444 98.06 89.0044 98.59C88.5644 99.12 87.9244 99.385 87.0844 99.385H86.5594V102.85C86.5594 102.95 86.5144 103 86.4244 103H85.2844ZM86.5594 98.11H87.0094C87.4494 98.11 87.7694 97.965 87.9694 97.675C88.1694 97.385 88.2694 96.93 88.2694 96.31C88.2694 95.65 88.1694 95.175 87.9694 94.885C87.7794 94.595 87.4744 94.45 87.0544 94.45H86.5594V98.11ZM90.9865 103C90.8965 103 90.8515 102.95 90.8515 102.85V93.325C90.8515 93.225 90.8915 93.175 90.9715 93.175H94.7965C94.8765 93.175 94.9165 93.225 94.9165 93.325V94.3C94.9165 94.41 94.8765 94.465 94.7965 94.465H92.2465V97.39H94.5715C94.6515 97.39 94.6915 97.445 94.6915 97.555V98.47C94.6915 98.57 94.6515 98.62 94.5715 98.62H92.2465V101.71H94.7965C94.8765 101.71 94.9165 101.765 94.9165 101.875V102.85C94.9165 102.95 94.8765 103 94.7965 103H90.9865ZM96.4243 103C96.3443 103 96.3043 102.95 96.3043 102.85V93.325C96.3043 93.225 96.3443 93.175 96.4243 93.175H98.3443C99.2643 93.175 99.9343 93.4 100.354 93.85C100.774 94.3 100.984 95 100.984 95.95C100.984 96.69 100.879 97.28 100.669 97.72C100.469 98.15 100.179 98.45 99.7993 98.62L99.7843 98.635L101.344 102.805C101.374 102.935 101.334 103 101.224 103H99.9943C99.9243 103 99.8743 102.965 99.8443 102.895L98.4643 98.92H97.6993V102.85C97.6993 102.95 97.6543 103 97.5643 103H96.4243ZM97.6993 97.705H98.3743C98.8143 97.705 99.1293 97.57 99.3193 97.3C99.5093 97.02 99.6043 96.6 99.6043 96.04C99.6043 95.48 99.4993 95.08 99.2893 94.84C99.0893 94.59 98.7743 94.465 98.3443 94.465H97.6993V97.705ZM102.565 103C102.485 103 102.445 102.95 102.445 102.85V93.325C102.445 93.225 102.485 93.175 102.565 93.175H103.705C103.795 93.175 103.84 93.225 103.84 93.325V102.85C103.84 102.95 103.795 103 103.705 103H102.565ZM105.469 103C105.389 103 105.349 102.95 105.349 102.85V93.325C105.349 93.225 105.389 93.175 105.469 93.175H107.044C107.124 93.175 107.174 93.21 107.194 93.28L108.634 98.47C108.704 98.73 108.779 99.02 108.859 99.34C108.939 99.65 109.014 99.965 109.084 100.285C109.154 100.595 109.214 100.875 109.264 101.125H109.294C109.274 100.925 109.259 100.695 109.249 100.435C109.239 100.175 109.229 99.91 109.219 99.64C109.209 99.37 109.199 99.105 109.189 98.845C109.189 98.585 109.189 98.355 109.189 98.155V93.325C109.189 93.225 109.229 93.175 109.309 93.175H110.374C110.464 93.175 110.509 93.225 110.509 93.325V102.85C110.509 102.95 110.464 103 110.374 103H108.814C108.744 103 108.699 102.97 108.679 102.91L107.254 97.84C107.114 97.35 106.994 96.87 106.894 96.4C106.794 95.92 106.699 95.48 106.609 95.08H106.579C106.599 95.37 106.614 95.705 106.624 96.085C106.634 96.455 106.644 96.83 106.654 97.21C106.664 97.59 106.669 97.925 106.669 98.215V102.85C106.669 102.95 106.629 103 106.549 103H105.469ZM113.398 103C113.308 103 113.263 102.95 113.263 102.85V94.465H111.703C111.613 94.465 111.568 94.41 111.568 94.3V93.325C111.568 93.225 111.613 93.175 111.703 93.175H116.233C116.313 93.175 116.353 93.225 116.353 93.325V94.3C116.353 94.41 116.313 94.465 116.233 94.465H114.658V102.85C114.658 102.95 114.613 103 114.523 103H113.398ZM117.562 103C117.472 103 117.427 102.95 117.427 102.85V93.325C117.427 93.225 117.467 93.175 117.547 93.175H121.372C121.452 93.175 121.492 93.225 121.492 93.325V94.3C121.492 94.41 121.452 94.465 121.372 94.465H118.822V97.39H121.147C121.227 97.39 121.267 97.445 121.267 97.555V98.47C121.267 98.57 121.227 98.62 121.147 98.62H118.822V101.71H121.372C121.452 101.71 121.492 101.765 121.492 101.875V102.85C121.492 102.95 121.452 103 121.372 103H117.562ZM122.999 103C122.919 103 122.879 102.95 122.879 102.85V93.325C122.879 93.225 122.919 93.175 122.999 93.175H124.574C124.654 93.175 124.704 93.21 124.724 93.28L126.164 98.47C126.234 98.73 126.309 99.02 126.389 99.34C126.469 99.65 126.544 99.965 126.614 100.285C126.684 100.595 126.744 100.875 126.794 101.125H126.824C126.804 100.925 126.789 100.695 126.779 100.435C126.769 100.175 126.759 99.91 126.749 99.64C126.739 99.37 126.729 99.105 126.719 98.845C126.719 98.585 126.719 98.355 126.719 98.155V93.325C126.719 93.225 126.759 93.175 126.839 93.175H127.904C127.994 93.175 128.039 93.225 128.039 93.325V102.85C128.039 102.95 127.994 103 127.904 103H126.344C126.274 103 126.229 102.97 126.209 102.91L124.784 97.84C124.644 97.35 124.524 96.87 124.424 96.4C124.324 95.92 124.229 95.48 124.139 95.08H124.109C124.129 95.37 124.144 95.705 124.154 96.085C124.164 96.455 124.174 96.83 124.184 97.21C124.194 97.59 124.199 97.925 124.199 98.215V102.85C124.199 102.95 124.159 103 124.079 103H122.999ZM129.698 103C129.598 103 129.548 102.95 129.548 102.85V93.325C129.548 93.225 129.598 93.175 129.698 93.175H131.483C132.563 93.175 133.368 93.51 133.898 94.18C134.428 94.84 134.693 95.855 134.693 97.225V98.59C134.693 100.08 134.433 101.19 133.913 101.92C133.393 102.64 132.608 103 131.558 103H129.698ZM130.943 101.71H131.498C132.138 101.71 132.598 101.465 132.878 100.975C133.158 100.485 133.298 99.71 133.298 98.65V97.195C133.298 96.255 133.153 95.565 132.863 95.125C132.573 94.685 132.103 94.465 131.453 94.465H130.943V101.71ZM136.161 103C136.071 103 136.026 102.95 136.026 102.85V93.325C136.026 93.225 136.066 93.175 136.146 93.175H139.971C140.051 93.175 140.091 93.225 140.091 93.325V94.3C140.091 94.41 140.051 94.465 139.971 94.465H137.421V97.39H139.746C139.826 97.39 139.866 97.445 139.866 97.555V98.47C139.866 98.57 139.826 98.62 139.746 98.62H137.421V101.71H139.971C140.051 101.71 140.091 101.765 140.091 101.875V102.85C140.091 102.95 140.051 103 139.971 103H136.161ZM141.599 103C141.519 103 141.479 102.95 141.479 102.85V93.325C141.479 93.225 141.519 93.175 141.599 93.175H143.174C143.254 93.175 143.304 93.21 143.324 93.28L144.764 98.47C144.834 98.73 144.909 99.02 144.989 99.34C145.069 99.65 145.144 99.965 145.214 100.285C145.284 100.595 145.344 100.875 145.394 101.125H145.424C145.404 100.925 145.389 100.695 145.379 100.435C145.369 100.175 145.359 99.91 145.349 99.64C145.339 99.37 145.329 99.105 145.319 98.845C145.319 98.585 145.319 98.355 145.319 98.155V93.325C145.319 93.225 145.359 93.175 145.439 93.175H146.504C146.594 93.175 146.639 93.225 146.639 93.325V102.85C146.639 102.95 146.594 103 146.504 103H144.944C144.874 103 144.829 102.97 144.809 102.91L143.384 97.84C143.244 97.35 143.124 96.87 143.024 96.4C142.924 95.92 142.829 95.48 142.739 95.08H142.709C142.729 95.37 142.744 95.705 142.754 96.085C142.764 96.455 142.774 96.83 142.784 97.21C142.794 97.59 142.799 97.925 142.799 98.215V102.85C142.799 102.95 142.759 103 142.679 103H141.599ZM149.527 103C149.437 103 149.392 102.95 149.392 102.85V94.465H147.832C147.742 94.465 147.697 94.41 147.697 94.3V93.325C147.697 93.225 147.742 93.175 147.832 93.175H152.362C152.442 93.175 152.482 93.225 152.482 93.325V94.3C152.482 94.41 152.442 94.465 152.362 94.465H150.787V102.85C150.787 102.95 150.742 103 150.652 103H149.527ZM158.056 103.09C157.216 103.09 156.571 102.84 156.121 102.34C155.671 101.84 155.446 101.09 155.446 100.09V96.115C155.446 95.095 155.671 94.335 156.121 93.835C156.571 93.335 157.216 93.085 158.056 93.085C158.906 93.085 159.556 93.335 160.006 93.835C160.456 94.335 160.681 95.095 160.681 96.115V100.09C160.681 101.09 160.456 101.84 160.006 102.34C159.556 102.84 158.906 103.09 158.056 103.09ZM158.056 101.8C158.466 101.8 158.771 101.66 158.971 101.38C159.181 101.1 159.286 100.645 159.286 100.015V96.175C159.286 95.535 159.181 95.075 158.971 94.795C158.771 94.515 158.466 94.375 158.056 94.375C157.656 94.375 157.351 94.515 157.141 94.795C156.941 95.075 156.841 95.535 156.841 96.175V100.015C156.841 100.645 156.941 101.1 157.141 101.38C157.351 101.66 157.656 101.8 158.056 101.8ZM162.194 103C162.114 103 162.074 102.95 162.074 102.85V93.325C162.074 93.225 162.114 93.175 162.194 93.175H166.019C166.099 93.175 166.139 93.225 166.139 93.325V94.3C166.139 94.41 166.099 94.465 166.019 94.465H163.469V97.54H165.659C165.759 97.54 165.809 97.595 165.809 97.705V98.635C165.809 98.735 165.759 98.785 165.659 98.785H163.469V102.85C163.469 102.95 163.429 103 163.349 103H162.194ZM171.385 103.09C170.795 103.09 170.325 102.97 169.975 102.73C169.625 102.49 169.38 102.16 169.24 101.74C169.11 101.31 169.065 100.81 169.105 100.24C169.115 100.13 169.16 100.075 169.24 100.075H170.35C170.44 100.075 170.48 100.13 170.47 100.24C170.41 100.76 170.465 101.155 170.635 101.425C170.805 101.695 171.065 101.83 171.415 101.83C171.745 101.83 171.99 101.735 172.15 101.545C172.31 101.345 172.39 101.03 172.39 100.6C172.39 100.24 172.335 99.935 172.225 99.685C172.115 99.425 171.93 99.2 171.67 99.01L170.425 98.035C169.985 97.695 169.66 97.325 169.45 96.925C169.24 96.515 169.14 96.015 169.15 95.425C169.16 94.675 169.355 94.1 169.735 93.7C170.115 93.29 170.66 93.085 171.37 93.085C172.2 93.085 172.805 93.33 173.185 93.82C173.565 94.31 173.715 94.985 173.635 95.845C173.635 95.975 173.595 96.04 173.515 96.04H172.375C172.295 96.04 172.26 95.975 172.27 95.845C172.32 95.385 172.27 95.02 172.12 94.75C171.97 94.48 171.735 94.345 171.415 94.345C171.145 94.345 170.93 94.435 170.77 94.615C170.62 94.785 170.54 95.05 170.53 95.41C170.53 95.76 170.595 96.055 170.725 96.295C170.855 96.535 171.045 96.755 171.295 96.955L172.51 97.885C172.82 98.125 173.065 98.37 173.245 98.62C173.435 98.87 173.57 99.155 173.65 99.475C173.74 99.785 173.785 100.155 173.785 100.585C173.785 101.375 173.59 101.99 173.2 102.43C172.82 102.87 172.215 103.09 171.385 103.09ZM177.465 103.09C176.615 103.09 175.965 102.835 175.515 102.325C175.075 101.805 174.855 101.01 174.855 99.94V96.235C174.855 95.185 175.075 94.4 175.515 93.88C175.965 93.35 176.615 93.085 177.465 93.085C178.075 93.085 178.58 93.225 178.98 93.505C179.38 93.775 179.665 94.16 179.835 94.66C180.015 95.16 180.065 95.755 179.985 96.445C179.965 96.545 179.925 96.595 179.865 96.595H178.71C178.61 96.595 178.57 96.535 178.59 96.415C178.64 95.755 178.575 95.25 178.395 94.9C178.215 94.55 177.905 94.375 177.465 94.375C177.055 94.375 176.75 94.525 176.55 94.825C176.35 95.125 176.25 95.62 176.25 96.31V99.85C176.25 100.54 176.35 101.04 176.55 101.35C176.76 101.65 177.065 101.8 177.465 101.8C177.945 101.8 178.265 101.615 178.425 101.245C178.595 100.875 178.66 100.375 178.62 99.745C178.6 99.635 178.64 99.58 178.74 99.58H179.835C179.925 99.58 179.98 99.635 180 99.745C180.07 100.795 179.89 101.615 179.46 102.205C179.04 102.795 178.375 103.09 177.465 103.09ZM181.53 103C181.44 103 181.395 102.95 181.395 102.85V93.325C181.395 93.225 181.44 93.175 181.53 93.175H182.655C182.745 93.175 182.79 93.225 182.79 93.325V97.315H185.145V93.325C185.145 93.225 185.19 93.175 185.28 93.175H186.39C186.49 93.175 186.54 93.225 186.54 93.325V102.85C186.54 102.95 186.49 103 186.39 103H185.28C185.19 103 185.145 102.95 185.145 102.85V98.59H182.79V102.85C182.79 102.95 182.745 103 182.655 103H181.53ZM190.524 103.09C189.684 103.09 189.039 102.84 188.589 102.34C188.139 101.84 187.914 101.09 187.914 100.09V96.115C187.914 95.095 188.139 94.335 188.589 93.835C189.039 93.335 189.684 93.085 190.524 93.085C191.374 93.085 192.024 93.335 192.474 93.835C192.924 94.335 193.149 95.095 193.149 96.115V100.09C193.149 101.09 192.924 101.84 192.474 102.34C192.024 102.84 191.374 103.09 190.524 103.09ZM190.524 101.8C190.934 101.8 191.239 101.66 191.439 101.38C191.649 101.1 191.754 100.645 191.754 100.015V96.175C191.754 95.535 191.649 95.075 191.439 94.795C191.239 94.515 190.934 94.375 190.524 94.375C190.124 94.375 189.819 94.515 189.609 94.795C189.409 95.075 189.309 95.535 189.309 96.175V100.015C189.309 100.645 189.409 101.1 189.609 101.38C189.819 101.66 190.124 101.8 190.524 101.8ZM197.016 103.09C196.176 103.09 195.531 102.84 195.081 102.34C194.631 101.84 194.406 101.09 194.406 100.09V96.115C194.406 95.095 194.631 94.335 195.081 93.835C195.531 93.335 196.176 93.085 197.016 93.085C197.866 93.085 198.516 93.335 198.966 93.835C199.416 94.335 199.641 95.095 199.641 96.115V100.09C199.641 101.09 199.416 101.84 198.966 102.34C198.516 102.84 197.866 103.09 197.016 103.09ZM197.016 101.8C197.426 101.8 197.731 101.66 197.931 101.38C198.141 101.1 198.246 100.645 198.246 100.015V96.175C198.246 95.535 198.141 95.075 197.931 94.795C197.731 94.515 197.426 94.375 197.016 94.375C196.616 94.375 196.311 94.515 196.101 94.795C195.901 95.075 195.801 95.535 195.801 96.175V100.015C195.801 100.645 195.901 101.1 196.101 101.38C196.311 101.66 196.616 101.8 197.016 101.8ZM201.169 103C201.079 103 201.034 102.95 201.034 102.85V93.325C201.034 93.225 201.079 93.175 201.169 93.175H202.294C202.384 93.175 202.429 93.225 202.429 93.325V101.71H204.829C204.919 101.71 204.964 101.765 204.964 101.875V102.85C204.964 102.95 204.919 103 204.829 103H201.169ZM207.969 103.09C207.379 103.09 206.909 102.97 206.559 102.73C206.209 102.49 205.964 102.16 205.824 101.74C205.694 101.31 205.649 100.81 205.689 100.24C205.699 100.13 205.744 100.075 205.824 100.075H206.934C207.024 100.075 207.064 100.13 207.054 100.24C206.994 100.76 207.049 101.155 207.219 101.425C207.389 101.695 207.649 101.83 207.999 101.83C208.329 101.83 208.574 101.735 208.734 101.545C208.894 101.345 208.974 101.03 208.974 100.6C208.974 100.24 208.919 99.935 208.809 99.685C208.699 99.425 208.514 99.2 208.254 99.01L207.009 98.035C206.569 97.695 206.244 97.325 206.034 96.925C205.824 96.515 205.724 96.015 205.734 95.425C205.744 94.675 205.939 94.1 206.319 93.7C206.699 93.29 207.244 93.085 207.954 93.085C208.784 93.085 209.389 93.33 209.769 93.82C210.149 94.31 210.299 94.985 210.219 95.845C210.219 95.975 210.179 96.04 210.099 96.04H208.959C208.879 96.04 208.844 95.975 208.854 95.845C208.904 95.385 208.854 95.02 208.704 94.75C208.554 94.48 208.319 94.345 207.999 94.345C207.729 94.345 207.514 94.435 207.354 94.615C207.204 94.785 207.124 95.05 207.114 95.41C207.114 95.76 207.179 96.055 207.309 96.295C207.439 96.535 207.629 96.755 207.879 96.955L209.094 97.885C209.404 98.125 209.649 98.37 209.829 98.62C210.019 98.87 210.154 99.155 210.234 99.475C210.324 99.785 210.369 100.155 210.369 100.585C210.369 101.375 210.174 101.99 209.784 102.43C209.404 102.87 208.799 103.09 207.969 103.09Z" fill="white"/>
<path d="M97.2344 73.6333C97.2344 68.3243 101.113 64.2773 106.758 64.2773C111.25 64.2773 113.953 66.5553 113.953 68.8323C113.953 70.3363 113.016 71.4883 111.383 71.4883C110.074 71.4883 108.949 70.5783 108.949 69.0473C108.949 68.9143 108.949 68.8053 108.977 68.6173C108.469 68.4303 107.879 68.2423 106.836 68.2423C104.082 68.2423 101.996 70.3363 101.996 73.4733C101.996 76.6053 104.055 78.5943 106.973 78.5943C109.031 78.5943 110.582 77.6523 111.945 76.4733L114.246 79.5823C112.348 81.5123 109.832 82.6683 106.652 82.6683C101.008 82.6683 97.2344 79.0203 97.2344 73.6333Z" fill="#014F6E"/>
<path d="M123.672 73.5783H127.098L125.41 68.1373L123.672 73.5783ZM115.945 82.2933V78.6993H117.762L121.16 68.2423H118.992V64.6523H132.098V68.2423H129.824L133.328 78.6993H135.148V82.2933H126.75V78.7273H128.516L127.926 76.5823H122.816L122.254 78.7273H124.023V82.2933H115.945Z" fill="#014F6E"/>
<path d="M136.871 78.215C136.871 76.688 137.914 75.641 139.332 75.641C140.828 75.641 141.688 76.742 141.688 77.84C141.688 78.109 141.633 78.379 141.551 78.645C142.141 78.969 142.914 79.129 143.852 79.129C145.352 79.129 146.098 78.512 146.098 77.574C146.098 76.688 145.297 76.098 143.586 75.453C139.25 73.82 137.484 72.48 137.484 69.586C137.484 66.5 140.16 64.25 144.227 64.25C148.16 64.25 150.484 66.285 150.484 68.324C150.484 69.934 149.523 70.734 148.266 70.734C146.848 70.734 145.91 69.691 145.91 68.539C145.91 68.402 145.938 68.27 145.965 68.082C145.457 67.895 144.867 67.812 144.199 67.812C142.809 67.812 141.98 68.324 141.98 69.262C141.98 70.227 143.184 70.762 145.082 71.488C148.828 72.934 150.699 74.25 150.699 77.223C150.699 80.359 148.188 82.695 143.879 82.695C139.945 82.695 136.871 80.977 136.871 78.215Z" fill="#014F6E"/>
<path d="M156.352 78.6993H158.598V68.1093H156.27V71.0593H152.363V64.6523H169.375V71.0593H165.473V68.1093H163.172V78.6993H165.418V82.2893H156.352V78.6993Z" fill="#014F6E"/>
<path d="M182.035 70.4413C182.035 68.9693 181.02 68.2423 179.016 68.2423H177.836V72.7733C178.16 72.8013 178.504 72.8283 179.066 72.8283C180.887 72.8283 182.035 72.0233 182.035 70.4413ZM171.176 78.6993H173.262V68.2423H171.176V64.6523H179.469C183.723 64.6523 186.797 66.4223 186.797 70.0943C186.797 72.2383 185.621 73.8753 183.723 74.7033L186.129 78.6993H188.133V82.2933H182.945L179.574 75.9653C179.336 75.9923 179.094 75.9923 178.906 75.9923C178.559 75.9923 178.133 75.9923 177.836 75.9653V78.6993H179.496V82.2933H171.176V78.6993Z" fill="#014F6E"/>
<path d="M203.105 73.4733C203.105 70.4413 201.234 68.3523 198.668 68.3523C196.07 68.3523 194.199 70.4143 194.199 73.4733C194.199 76.5003 196.07 78.5943 198.641 78.5943C201.234 78.5943 203.105 76.5003 203.105 73.4733ZM189.438 73.4733C189.438 68.2703 193.156 64.2773 198.695 64.2773C204.148 64.2773 207.867 68.2973 207.867 73.4733C207.867 78.6723 204.121 82.6683 198.613 82.6683C193.156 82.6683 189.438 78.6453 189.438 73.4733Z" fill="#014F6E"/>
<path d="M7.895 13.1367V22.4337H13.504L4.707 49.4997H0V58.8007H20.91V49.5697H16.34L17.797 44.0197H31.02L32.543 49.5697H27.973V58.8007H49.715V49.4997H45.004L35.934 22.4337H41.82V13.1367H7.895ZM24.512 22.1557L28.871 36.2457H20.012L24.512 22.1557Z" fill="#014F6E"/>
<path d="M51.8633 8V16.328H55.6023V50.543H51.8633V58.801H70.4923V50.543H66.7503V8H51.8633Z" fill="#014F6E"/>
<path d="M70.8398 66.4339C70.8398 63.1719 72.9838 60.6719 76.3088 60.6719C79.4258 60.6719 81.3628 62.6169 81.6408 65.0469C81.8478 64.9769 81.9878 64.8399 82.1948 64.6289C82.7458 64.0739 83.3009 63.2419 83.7849 62.1989L85.5858 58.3119L74.9918 35.4099H71.5308V27.0859H89.5308V35.0659H86.1408L91.1948 47.6949L96.4568 35.0659H92.9958V27.0859H109.406V35.4099H105.941L94.2418 60.8119C92.3708 64.9059 90.7109 67.8909 88.7729 69.9019C86.3479 72.3319 83.6478 73.5819 79.7698 73.5819C73.9528 73.5819 70.8398 70.5269 70.8398 66.4339Z" fill="#014F6E"/>
<path d="M134.82 38.7423C131.844 38.7423 130.043 37.1483 130.043 34.5783V34.0943C128.867 33.6093 127.617 33.3983 126.234 33.3983C123.949 33.3983 122.148 34.0943 122.148 35.6913C122.148 37.1483 123.742 37.7033 127.965 39.0203C134.891 41.0353 139.945 43.5313 139.945 49.3633C139.945 55.5393 134.891 59.7733 125.266 59.7733C118.895 59.7733 114.602 58.1763 112.387 55.9533C111.07 54.6373 110.449 53.0393 110.449 51.5823C110.449 48.8753 112.453 46.7933 115.227 46.7933C117.789 46.7933 120.141 48.5273 120.141 51.5163V51.8593C121.25 52.3483 122.84 52.5553 124.711 52.5553C127.551 52.5553 129.004 51.8593 129.004 50.4023C129.004 49.0863 128.035 48.4613 124.711 47.4183C116.195 44.8523 111.555 42.6293 111.555 36.8013C111.555 31.2503 116.402 26.3203 125.613 26.3203C131.082 26.3203 135.168 27.8483 137.312 30.0003C138.559 31.1803 139.18 32.6373 139.18 34.2343C139.18 36.9383 137.312 38.7423 134.82 38.7423Z" fill="#014F6E"/>
<path d="M167.227 38.7423C164.25 38.7423 162.449 37.1483 162.449 34.5783V34.0943C161.273 33.6093 160.027 33.3983 158.641 33.3983C156.355 33.3983 154.555 34.0943 154.555 35.6913C154.555 37.1483 156.148 37.7033 160.375 39.0203C167.297 41.0353 172.352 43.5313 172.352 49.3633C172.352 55.5393 167.297 59.7733 157.672 59.7733C151.301 59.7733 147.012 58.1763 144.793 55.9533C143.477 54.6373 142.855 53.0393 142.855 51.5823C142.855 48.8753 144.863 46.7933 147.633 46.7933C150.195 46.7933 152.551 48.5273 152.551 51.5163V51.8593C153.656 52.3483 155.25 52.5553 157.117 52.5553C159.957 52.5553 161.41 51.8593 161.41 50.4023C161.41 49.0863 160.441 48.4613 157.117 47.4183C148.602 44.8523 143.965 42.6293 143.965 36.8013C143.965 31.2503 148.809 26.3203 158.02 26.3203C163.488 26.3203 167.574 27.8483 169.719 30.0003C170.965 31.1803 171.59 32.6373 171.59 34.2343C171.59 36.9383 169.719 38.7423 167.227 38.7423Z" fill="#014F6E"/>
<path d="M186.824 40.2696H197.836C197.625 37.0076 195.758 34.7886 192.504 34.7886C189.941 34.7886 187.586 36.4526 186.824 40.2696ZM186.895 45.6126C187.934 49.5696 191.117 51.0976 195.551 51.0976C199.496 51.0976 202.613 50.3316 206.281 48.4606L205.449 57.0656C202.402 58.6596 198.25 59.5616 193.75 59.5616C182.949 59.5616 175.676 53.0386 175.676 43.0466C175.676 33.8866 182.117 26.3906 192.293 26.3906C202.266 26.3906 208.152 33.2616 208.152 41.7966C208.152 42.9766 208.012 44.5036 207.805 45.6126H186.895Z" fill="#014F6E"/>
</svg>
